<svg width="65" height="65" viewBox="0 0 65 65" fill="none" xmlns="http://www.w3.org/2000/svg">
<rect width="65" height="65" rx="10.4" fill="white"/>
<path d="M27.3 26V20.8M37.7 26V20.8M26 31.2H39M23.4 44.2H41.6C42.2896 44.2 42.9509 43.9261 43.4385 43.4385C43.9261 42.9509 44.2001 42.2896 44.2001 41.6V26C44.2001 25.3104 43.9261 24.6491 43.4385 24.1615C42.9509 23.6739 42.2896 23.4 41.6 23.4H23.4C22.7105 23.4 22.0492 23.6739 21.5616 24.1615C21.074 24.6491 20.8 25.3104 20.8 26V41.6C20.8 42.2896 21.074 42.9509 21.5616 43.4385C22.0492 43.9261 22.7105 44.2 23.4 44.2Z" stroke="#59587E" stroke-width="2.6" stroke-linecap="round" stroke-linejoin="round"/>
</svg>
