<svg width="349" height="98" viewBox="0 0 349 98" fill="none" xmlns="http://www.w3.org/2000/svg">
<path d="M48.4766 39.862C47.0765 39.9398 46.0458 40.0953 45.3846 40.3287C44.7623 40.5621 44.3345 41.0093 44.1011 41.6705C43.8678 42.3317 43.7511 43.4013 43.7511 44.8792V73.8159C43.7511 75.2939 43.8678 76.3635 44.1011 77.0247C44.3345 77.6858 44.7623 78.1331 45.3846 78.3665C46.0458 78.5998 47.0765 78.7554 48.4766 78.8332V80C46.6876 79.8833 44.2178 79.825 41.0674 79.825C37.7226 79.825 35.2334 79.8833 33.5999 80V78.8332C35.0001 78.7554 36.0113 78.5998 36.6336 78.3665C37.2948 78.1331 37.7421 77.6858 37.9754 77.0247C38.2088 76.3635 38.3255 75.2939 38.3255 73.8159V42.5456L24.2655 80.2917H23.332L8.63033 42.4289V73.2325C8.63033 74.7494 8.74701 75.8773 8.98037 76.6163C9.25263 77.3552 9.75824 77.8998 10.4972 78.2498C11.2362 78.5609 12.3835 78.7554 13.9393 78.8332V80C12.5391 79.8833 10.5556 79.825 7.98859 79.825C5.65498 79.825 3.84644 79.8833 2.56296 80V78.8332C3.92423 78.7554 4.93546 78.5609 5.59664 78.2498C6.25783 77.8998 6.70511 77.3552 6.93847 76.6163C7.17183 75.8384 7.28851 74.7105 7.28851 73.2325V44.8792C7.28851 43.4013 7.17183 42.3317 6.93847 41.6705C6.70511 41.0093 6.25783 40.5621 5.59664 40.3287C4.97435 40.0953 3.96312 39.9398 2.56296 39.862V38.6952C3.84644 38.8119 5.65498 38.8702 7.98859 38.8702C10.011 38.8702 11.664 38.8119 12.9475 38.6952L25.7823 72.4741L38.3255 38.8702H41.0674C44.2178 38.8702 46.6876 38.8119 48.4766 38.6952V39.862ZM83.0195 75.0994C84.0696 77.5108 85.4114 78.7554 87.0449 78.8332V80C85.4892 79.8833 83.4084 79.825 80.8026 79.825C77.4577 79.825 74.9685 79.8833 73.335 80V78.8332C74.7741 78.7554 75.8242 78.5609 76.4854 78.2498C77.1855 77.9386 77.5355 77.4136 77.5355 76.6746C77.5355 76.0523 77.2633 75.1383 76.7187 73.9326L73.7434 67.2818H59.5667L57.5832 71.6574C56.922 73.1742 56.5914 74.4188 56.5914 75.3911C56.5914 76.4024 56.9414 77.1997 57.6415 77.7831C58.3805 78.3276 59.5473 78.6776 61.1419 78.8332V80C59.9751 79.8833 58.2055 79.825 55.833 79.825C53.4605 79.825 51.7686 79.8833 50.7574 80V78.8332C51.8075 78.5609 52.7021 77.9775 53.441 77.083C54.18 76.1496 54.8801 74.9244 55.5413 73.4076L68.4344 44.2375H69.3679L83.0195 75.0994ZM73.2767 66.115L66.6842 51.2967L60.0335 66.115H73.2767ZM123.753 77.5497C123.014 78.5998 122.159 79.4166 121.186 80C120.253 80.5445 119.125 80.8168 117.803 80.8168C114.535 80.8168 112.532 79.3388 111.793 76.3829L109.985 69.0904C109.44 66.9124 108.624 65.4539 107.535 64.7149C106.485 63.9759 104.909 63.6064 102.809 63.6064H99.4837V73.8159C99.4837 75.2939 99.6004 76.3635 99.8337 77.0247C100.067 77.6858 100.495 78.1331 101.117 78.3665C101.778 78.5998 102.809 78.7554 104.209 78.8332V80C102.42 79.8833 99.9504 79.825 96.8001 79.825C93.4552 79.825 90.966 79.8833 89.3325 80V78.8332C90.7327 78.7554 91.7439 78.5998 92.3662 78.3665C93.0274 78.1331 93.4747 77.6858 93.708 77.0247C93.9414 76.3635 94.0581 75.2939 94.0581 73.8159V50.7132C94.0581 49.2353 93.9414 48.1657 93.708 47.5045C93.4747 46.8434 93.0274 46.3961 92.3662 46.1627C91.7439 45.9294 90.7327 45.7738 89.3325 45.696V44.5292C90.966 44.6459 93.3385 44.7042 96.45 44.7042L102.401 44.6459C103.062 44.607 103.82 44.5875 104.676 44.5875C109.032 44.5875 112.357 45.4043 114.652 47.0378C116.986 48.6713 118.153 50.791 118.153 53.3969C118.153 55.6527 117.239 57.7141 115.411 59.581C113.621 61.4478 110.666 62.6341 106.543 63.1397C107.321 63.2175 107.982 63.2953 108.526 63.3731C110.588 63.6842 112.221 64.3065 113.427 65.2399C114.633 66.1734 115.488 67.6708 115.994 69.7321L117.277 75.0411C117.589 76.4024 117.919 77.3747 118.269 77.9581C118.658 78.5026 119.144 78.7749 119.728 78.7749C120.7 78.7749 121.77 78.1137 122.936 76.7913L123.753 77.5497ZM103.217 45.696C102.167 45.696 101.37 45.8321 100.826 46.1044C100.32 46.3766 99.9699 46.8628 99.7754 47.5629C99.5809 48.263 99.4837 49.3131 99.4837 50.7132V62.4396H103.392C106.815 62.4396 109.149 61.7201 110.393 60.281C111.677 58.8031 112.319 56.7223 112.319 54.0386C112.319 51.2383 111.599 49.1575 110.16 47.7962C108.76 46.3961 106.446 45.696 103.217 45.696ZM155.375 75.0994C156.425 77.5108 157.767 78.7554 159.4 78.8332V80C157.845 79.8833 155.764 79.825 153.158 79.825C149.813 79.825 147.324 79.8833 145.69 80V78.8332C147.13 78.7554 148.18 78.5609 148.841 78.2498C149.541 77.9386 149.891 77.4136 149.891 76.6746C149.891 76.0523 149.619 75.1383 149.074 73.9326L146.099 67.2818H131.922L129.939 71.6574C129.277 73.1742 128.947 74.4188 128.947 75.3911C128.947 76.4024 129.297 77.1997 129.997 77.7831C130.736 78.3276 131.903 78.6776 133.497 78.8332V80C132.331 79.8833 130.561 79.825 128.188 79.825C125.816 79.825 124.124 79.8833 123.113 80V78.8332C124.163 78.5609 125.057 77.9775 125.796 77.083C126.535 76.1496 127.236 74.9244 127.897 73.4076L140.79 44.2375H141.723L155.375 75.0994ZM145.632 66.115L139.04 51.2967L132.389 66.115H145.632ZM199.784 45.696C198.384 45.7738 197.353 45.9294 196.692 46.1627C196.07 46.3961 195.642 46.8434 195.409 47.5045C195.175 48.1657 195.059 49.2353 195.059 50.7132V73.8159C195.059 75.2939 195.175 76.3635 195.409 77.0247C195.642 77.6858 196.07 78.1331 196.692 78.3665C197.353 78.5998 198.384 78.7554 199.784 78.8332V80C198.151 79.8833 195.661 79.825 192.317 79.825C189.205 79.825 186.735 79.8833 184.907 80V78.8332C186.307 78.7554 187.319 78.5998 187.941 78.3665C188.602 78.1331 189.049 77.6858 189.283 77.0247C189.516 76.3635 189.633 75.2939 189.633 73.8159V62.2063H171.839V73.8159C171.839 75.2939 171.956 76.3635 172.189 77.0247C172.423 77.6858 172.85 78.1331 173.473 78.3665C174.134 78.5998 175.165 78.7554 176.565 78.8332V80C174.776 79.8833 172.306 79.825 169.155 79.825C165.811 79.825 163.321 79.8833 161.688 80V78.8332C163.088 78.7554 164.099 78.5998 164.722 78.3665C165.383 78.1331 165.83 77.6858 166.063 77.0247C166.297 76.3635 166.414 75.2939 166.414 73.8159V50.7132C166.414 49.2353 166.297 48.1657 166.063 47.5045C165.83 46.8434 165.383 46.3961 164.722 46.1627C164.099 45.9294 163.088 45.7738 161.688 45.696V44.5292C163.321 44.6459 165.811 44.7042 169.155 44.7042C172.267 44.7042 174.737 44.6459 176.565 44.5292V45.696C175.165 45.7738 174.134 45.9294 173.473 46.1627C172.85 46.3961 172.423 46.8434 172.189 47.5045C171.956 48.1657 171.839 49.2353 171.839 50.7132V61.0395H189.633V50.7132C189.633 49.2353 189.516 48.1657 189.283 47.5045C189.049 46.8434 188.602 46.3961 187.941 46.1627C187.319 45.9294 186.307 45.7738 184.907 45.696V44.5292C186.696 44.6459 189.166 44.7042 192.317 44.7042C195.661 44.7042 198.151 44.6459 199.784 44.5292V45.696ZM239.181 45.696C237.82 45.7738 236.809 45.9877 236.148 46.3377C235.487 46.6489 235.039 47.1934 234.806 47.9713C234.573 48.7102 234.456 49.8187 234.456 51.2967V64.1898C234.456 66.8735 234.261 69.1682 233.872 71.074C233.522 72.9408 232.92 74.5744 232.064 75.9745C231.131 77.4525 229.769 78.6387 227.98 79.5333C226.23 80.3889 224.227 80.8168 221.971 80.8168C217.965 80.8168 214.893 79.9611 212.753 78.2498C211.042 76.733 209.895 75.0022 209.311 73.0575C208.728 71.1129 208.436 68.2153 208.436 64.3648V50.7132C208.436 49.2353 208.32 48.1657 208.086 47.5045C207.853 46.8434 207.406 46.3961 206.744 46.1627C206.122 45.9294 205.111 45.7738 203.711 45.696V44.5292C205.344 44.6459 207.833 44.7042 211.178 44.7042C214.29 44.7042 216.759 44.6459 218.587 44.5292V45.696C217.187 45.7738 216.157 45.9294 215.495 46.1627C214.873 46.3961 214.445 46.8434 214.212 47.5045C213.979 48.1657 213.862 49.2353 213.862 50.7132V65.3566C213.862 68.2347 214.056 70.6267 214.445 72.5325C214.834 74.3993 215.651 75.9162 216.896 77.083C218.179 78.2109 220.046 78.7749 222.496 78.7749C226.386 78.7749 229.127 77.5497 230.722 75.0994C232.317 72.6491 233.114 69.2265 233.114 64.8316V51.2967C233.114 49.1964 232.725 47.7573 231.947 46.9795C231.208 46.2016 229.828 45.7738 227.805 45.696V44.5292C229.205 44.6459 231.189 44.7042 233.756 44.7042C236.089 44.7042 237.898 44.6459 239.181 44.5292V45.696ZM269.005 44.7626C271.222 44.7626 272.719 44.6848 273.497 44.5292V45.7543C272.836 45.9099 272.233 46.2794 271.689 46.8628C271.144 47.4462 270.502 48.3991 269.764 49.7215L260.604 66.115V73.8159C260.604 75.2939 260.721 76.3635 260.954 77.0247C261.188 77.6858 261.615 78.1331 262.238 78.3665C262.899 78.5998 263.93 78.7554 265.33 78.8332V80C263.541 79.8833 261.071 79.825 257.92 79.825C254.576 79.825 252.086 79.8833 250.453 80V78.8332C251.853 78.7554 252.864 78.5998 253.487 78.3665C254.148 78.1331 254.595 77.6858 254.828 77.0247C255.062 76.3635 255.178 75.2939 255.178 73.8159V67.7486L243.919 49.0214C243.18 47.7768 242.558 46.96 242.052 46.5711C241.585 46.1433 241.08 45.871 240.535 45.7543V44.5292C243.024 44.6848 244.736 44.7626 245.669 44.7626C248.353 44.7626 251.075 44.6848 253.837 44.5292V45.7543C252.514 45.7543 251.503 45.871 250.803 46.1044C250.103 46.2988 249.753 46.7656 249.753 47.5045C249.753 48.1657 250.083 49.0797 250.745 50.2465L259.554 64.9482L266.788 52.2301C267.644 50.6744 268.072 49.4298 268.072 48.4963C268.072 46.8628 266.73 45.9488 264.046 45.7543V44.5292C265.485 44.6848 267.138 44.7626 269.005 44.7626ZM293.902 43.7124C297.48 43.7124 300.611 44.432 303.295 45.871C306.018 47.2712 308.118 49.352 309.596 52.1134C311.074 54.836 311.813 58.103 311.813 61.9146C311.813 65.6483 311.035 68.9543 309.479 71.8324C307.962 74.6716 305.843 76.8885 303.12 78.4832C300.397 80.0389 297.305 80.8168 293.844 80.8168C290.266 80.8168 287.115 80.1167 284.393 78.7165C281.709 77.2775 279.628 75.1967 278.15 72.4741C276.672 69.7127 275.933 66.4262 275.933 62.6146C275.933 58.8809 276.692 55.5944 278.209 52.7552C279.764 49.877 281.904 47.6601 284.626 46.1044C287.349 44.5097 290.441 43.7124 293.902 43.7124ZM293.669 44.7626C291.296 44.7626 289.196 45.521 287.368 47.0378C285.579 48.5158 284.198 50.5966 283.226 53.2802C282.254 55.925 281.767 58.9587 281.767 62.3813C281.767 65.8428 282.312 68.8959 283.401 71.5407C284.49 74.1854 285.968 76.2273 287.835 77.6664C289.702 79.0666 291.783 79.7666 294.077 79.7666C296.45 79.7666 298.531 79.0277 300.32 77.5497C302.148 76.0329 303.548 73.9521 304.52 71.3073C305.492 68.6237 305.979 65.5705 305.979 62.1479C305.979 58.6864 305.434 55.6333 304.345 52.9885C303.256 50.3438 301.778 48.3213 299.911 46.9211C298.044 45.4821 295.964 44.7626 293.669 44.7626Z" fill="#0A0A0A"/>
<path d="M154.626 95.0001V87.3429H155.545V95.0001H154.626ZM149.736 95.0001V87.3429H150.655V95.0001H149.736ZM150.48 91.4778V90.723H154.856V91.4778H150.48ZM164.62 95.1313C164.11 95.1313 163.65 95.0146 163.242 94.7813C162.834 94.5406 162.513 94.2052 162.279 93.7749C162.046 93.3374 161.929 92.8305 161.929 92.2544C161.929 91.6637 162.046 91.1533 162.279 90.723C162.52 90.2854 162.845 89.95 163.253 89.7166C163.669 89.476 164.132 89.3557 164.642 89.3557C165.167 89.3557 165.63 89.476 166.031 89.7166C166.44 89.95 166.761 90.2854 166.994 90.723C167.235 91.1533 167.355 91.6601 167.355 92.2435C167.355 92.8269 167.235 93.3374 166.994 93.7749C166.753 94.2052 166.429 94.5406 166.021 94.7813C165.612 95.0146 165.145 95.1313 164.62 95.1313ZM164.631 94.3437C164.945 94.3437 165.237 94.2672 165.506 94.114C165.776 93.9536 165.995 93.7166 166.163 93.403C166.33 93.0894 166.414 92.7029 166.414 92.2435C166.414 91.7768 166.33 91.3903 166.163 91.084C166.002 90.7704 165.787 90.537 165.517 90.3839C165.255 90.2235 164.963 90.1432 164.642 90.1432C164.336 90.1432 164.044 90.2235 163.767 90.3839C163.497 90.537 163.279 90.7704 163.111 91.084C162.95 91.3903 162.87 91.7768 162.87 92.2435C162.87 92.7029 162.95 93.0894 163.111 93.403C163.279 93.7166 163.494 93.9536 163.756 94.114C164.026 94.2672 164.318 94.3437 164.631 94.3437ZM175.627 95.0001C175.299 95.0001 175.015 94.949 174.774 94.8469C174.534 94.7448 174.348 94.5734 174.216 94.3328C174.092 94.0849 174.03 93.753 174.03 93.3374V90.2636H173.068V89.4869H174.03L174.151 88.1524H174.949V89.4869H176.546V90.2636H174.949V93.3374C174.949 93.6801 175.019 93.9135 175.157 94.0374C175.296 94.1541 175.54 94.2125 175.89 94.2125H176.481V95.0001H175.627ZM185.045 95.1313C184.527 95.1313 184.068 95.011 183.667 94.7703C183.273 94.5297 182.963 94.1942 182.737 93.764C182.511 93.3264 182.398 92.8196 182.398 92.2435C182.398 91.6601 182.507 91.1533 182.726 90.723C182.952 90.2927 183.266 89.9573 183.667 89.7166C184.075 89.476 184.542 89.3557 185.067 89.3557C185.606 89.3557 186.062 89.476 186.434 89.7166C186.813 89.9573 187.101 90.2745 187.298 90.6683C187.503 91.0548 187.605 91.4814 187.605 91.9481C187.605 92.0211 187.605 92.0976 187.605 92.1779C187.605 92.2581 187.601 92.3492 187.594 92.4513H183.087V91.7403H186.708C186.686 91.2371 186.518 90.8433 186.204 90.5589C185.898 90.2745 185.512 90.1323 185.045 90.1323C184.731 90.1323 184.44 90.2052 184.17 90.3511C183.907 90.4896 183.696 90.6975 183.535 90.9746C183.375 91.2444 183.295 91.5835 183.295 91.9919V92.2982C183.295 92.7503 183.375 93.1295 183.535 93.4358C183.703 93.7421 183.918 93.9718 184.181 94.125C184.451 94.2781 184.739 94.3547 185.045 94.3547C185.431 94.3547 185.749 94.2708 185.997 94.1031C186.252 93.9281 186.434 93.6947 186.544 93.403H187.451C187.364 93.7312 187.211 94.0265 186.992 94.289C186.773 94.5516 186.5 94.7594 186.172 94.9126C185.851 95.0584 185.475 95.1313 185.045 95.1313ZM193.876 95.0001V87.1241H194.795V95.0001H193.876ZM211.075 95.1313C210.63 95.1313 210.259 95.0548 209.96 94.9016C209.661 94.7412 209.438 94.5333 209.292 94.2781C209.146 94.0156 209.074 93.7312 209.074 93.4249C209.074 93.053 209.168 92.7394 209.358 92.4841C209.555 92.2216 209.828 92.0247 210.178 91.8934C210.536 91.7549 210.955 91.6856 211.436 91.6856H212.891C212.891 91.3429 212.836 91.0585 212.727 90.8324C212.625 90.599 212.472 90.424 212.268 90.3073C212.071 90.1906 211.823 90.1323 211.524 90.1323C211.174 90.1323 210.871 90.2198 210.616 90.3948C210.361 90.5699 210.204 90.8287 210.146 91.1715H209.205C209.249 90.7777 209.38 90.4495 209.599 90.187C209.825 89.9172 210.109 89.713 210.452 89.5744C210.795 89.4286 211.152 89.3557 211.524 89.3557C212.034 89.3557 212.457 89.4505 212.793 89.6401C213.135 89.8224 213.391 90.0813 213.558 90.4167C213.726 90.7449 213.81 91.135 213.81 91.5872V95.0001H212.99L212.935 94.0265C212.862 94.1797 212.767 94.3255 212.651 94.4641C212.541 94.5953 212.41 94.712 212.257 94.8141C212.104 94.9089 211.929 94.9855 211.732 95.0438C211.542 95.1022 211.323 95.1313 211.075 95.1313ZM211.218 94.3547C211.473 94.3547 211.702 94.3036 211.907 94.2015C212.118 94.0921 212.297 93.9463 212.443 93.764C212.589 93.5744 212.698 93.3665 212.771 93.1405C212.851 92.9144 212.891 92.6774 212.891 92.4294V92.3966H211.513C211.156 92.3966 210.867 92.4404 210.649 92.5279C210.43 92.6081 210.273 92.7248 210.178 92.8779C210.084 93.0238 210.036 93.1915 210.036 93.3811C210.036 93.578 210.08 93.7494 210.167 93.8952C210.262 94.0411 210.397 94.1541 210.572 94.2343C210.754 94.3146 210.97 94.3547 211.218 94.3547ZM220.263 95.0001V89.4869H221.095L221.138 90.4495C221.313 90.1068 221.561 89.8406 221.882 89.651C222.21 89.4541 222.582 89.3557 222.998 89.3557C223.428 89.3557 223.8 89.4432 224.114 89.6182C224.427 89.7859 224.672 90.0448 224.847 90.3948C225.022 90.7376 225.109 91.1751 225.109 91.7075V95.0001H224.19V91.8059C224.19 91.2517 224.066 90.836 223.818 90.5589C223.578 90.2818 223.235 90.1432 222.79 90.1432C222.484 90.1432 222.21 90.2198 221.97 90.373C221.729 90.5188 221.536 90.7339 221.39 91.0183C221.251 91.2955 221.182 91.6419 221.182 92.0575V95.0001H220.263ZM234.005 95.1313C233.472 95.1313 233.006 95.0074 232.605 94.7594C232.204 94.5042 231.894 94.1578 231.675 93.7202C231.456 93.2827 231.347 92.7868 231.347 92.2326C231.347 91.6783 231.456 91.1861 231.675 90.7558C231.894 90.3183 232.204 89.9755 232.605 89.7276C233.013 89.4796 233.483 89.3557 234.016 89.3557C234.468 89.3557 234.862 89.4468 235.197 89.6291C235.54 89.8114 235.802 90.0667 235.985 90.3948V87.1241H236.904V95.0001H236.072L235.996 94.0921C235.879 94.2745 235.729 94.4458 235.547 94.6063C235.365 94.7594 235.146 94.887 234.891 94.9891C234.636 95.0839 234.34 95.1313 234.005 95.1313ZM234.114 94.3328C234.479 94.3328 234.8 94.2453 235.077 94.0703C235.354 93.8952 235.569 93.6546 235.722 93.3483C235.875 93.0347 235.952 92.6665 235.952 92.2435C235.952 91.8278 235.875 91.4632 235.722 91.1496C235.569 90.836 235.354 90.5917 235.077 90.4167C234.8 90.2417 234.479 90.1542 234.114 90.1542C233.757 90.1542 233.44 90.2417 233.163 90.4167C232.885 90.5917 232.67 90.836 232.517 91.1496C232.364 91.4632 232.287 91.8278 232.287 92.2435C232.287 92.6665 232.364 93.0347 232.517 93.3483C232.67 93.6546 232.885 93.8952 233.163 94.0703C233.44 94.2453 233.757 94.3328 234.114 94.3328ZM251.458 95.0001V87.3429H253.931C254.529 87.3429 255.017 87.445 255.396 87.6492C255.776 87.8461 256.056 88.1123 256.239 88.4477C256.421 88.7832 256.512 89.1624 256.512 89.5854C256.512 89.9937 256.417 90.3693 256.228 90.7121C256.045 91.0548 255.761 91.3283 255.375 91.5325C254.988 91.7367 254.492 91.8388 253.887 91.8388H252.377V95.0001H251.458ZM255.506 95.0001L253.821 91.5762H254.849L256.589 95.0001H255.506ZM252.377 91.1168H253.865C254.448 91.1168 254.875 90.9746 255.145 90.6902C255.422 90.4058 255.561 90.0411 255.561 89.5963C255.561 89.1442 255.426 88.7868 255.156 88.5243C254.893 88.2545 254.459 88.1196 253.854 88.1196H252.377V91.1168ZM265.017 95.1313C264.499 95.1313 264.04 95.011 263.639 94.7703C263.245 94.5297 262.935 94.1942 262.709 93.764C262.483 93.3264 262.37 92.8196 262.37 92.2435C262.37 91.6601 262.479 91.1533 262.698 90.723C262.924 90.2927 263.237 89.9573 263.639 89.7166C264.047 89.476 264.514 89.3557 265.039 89.3557C265.578 89.3557 266.034 89.476 266.406 89.7166C266.785 89.9573 267.073 90.2745 267.27 90.6683C267.474 91.0548 267.576 91.4814 267.576 91.9481C267.576 92.0211 267.576 92.0976 267.576 92.1779C267.576 92.2581 267.573 92.3492 267.566 92.4513H263.059V91.7403H266.68C266.658 91.2371 266.49 90.8433 266.176 90.5589C265.87 90.2745 265.484 90.1323 265.017 90.1323C264.703 90.1323 264.412 90.2052 264.142 90.3511C263.879 90.4896 263.668 90.6975 263.507 90.9746C263.347 91.2444 263.267 91.5835 263.267 91.9919V92.2982C263.267 92.7503 263.347 93.1295 263.507 93.4358C263.675 93.7421 263.89 93.9718 264.153 94.125C264.422 94.2781 264.711 94.3547 265.017 94.3547C265.403 94.3547 265.721 94.2708 265.968 94.1031C266.224 93.9281 266.406 93.6947 266.515 93.403H267.423C267.336 93.7312 267.183 94.0265 266.964 94.289C266.745 94.5516 266.472 94.7594 266.144 94.9126C265.823 95.0584 265.447 95.1313 265.017 95.1313ZM275.927 95.1313C275.467 95.1313 275.066 95.0548 274.723 94.9016C274.388 94.7485 274.118 94.537 273.914 94.2672C273.717 93.99 273.597 93.6655 273.553 93.2936H274.494C274.53 93.4832 274.607 93.6582 274.723 93.8187C274.84 93.9791 274.997 94.1104 275.194 94.2125C275.398 94.3073 275.646 94.3547 275.938 94.3547C276.193 94.3547 276.404 94.3182 276.572 94.2453C276.74 94.1651 276.864 94.0593 276.944 93.9281C277.032 93.7968 277.075 93.6546 277.075 93.5014C277.075 93.2754 277.021 93.104 276.911 92.9873C276.809 92.8706 276.656 92.7795 276.452 92.7139C276.248 92.6409 276 92.5789 275.708 92.5279C275.467 92.4841 275.23 92.4258 274.997 92.3529C274.764 92.28 274.556 92.1851 274.373 92.0685C274.191 91.9445 274.045 91.795 273.936 91.62C273.834 91.445 273.783 91.2298 273.783 90.9746C273.783 90.661 273.863 90.3839 274.023 90.1432C274.184 89.8953 274.414 89.702 274.713 89.5635C275.019 89.4249 275.372 89.3557 275.774 89.3557C276.364 89.3557 276.842 89.4979 277.207 89.7823C277.571 90.0667 277.786 90.4787 277.852 91.0183H276.944C276.908 90.7412 276.787 90.5261 276.583 90.373C276.386 90.2125 276.113 90.1323 275.763 90.1323C275.42 90.1323 275.157 90.2016 274.975 90.3401C274.8 90.4787 274.713 90.661 274.713 90.8871C274.713 91.0329 274.76 91.1642 274.855 91.2809C274.957 91.3903 275.103 91.4851 275.292 91.5653C275.489 91.6455 275.73 91.7111 276.014 91.7622C276.379 91.8278 276.711 91.9153 277.01 92.0247C277.309 92.1341 277.549 92.2982 277.732 92.517C277.921 92.7284 278.016 93.0311 278.016 93.4249C278.016 93.7676 277.929 94.0666 277.753 94.3219C277.586 94.5771 277.345 94.7776 277.032 94.9235C276.718 95.062 276.35 95.1313 275.927 95.1313ZM286.832 95.1313C286.322 95.1313 285.862 95.0146 285.454 94.7813C285.045 94.5406 284.725 94.2052 284.491 93.7749C284.258 93.3374 284.141 92.8305 284.141 92.2544C284.141 91.6637 284.258 91.1533 284.491 90.723C284.732 90.2854 285.056 89.95 285.465 89.7166C285.88 89.476 286.344 89.3557 286.854 89.3557C287.379 89.3557 287.842 89.476 288.243 89.7166C288.652 89.95 288.973 90.2854 289.206 90.723C289.447 91.1533 289.567 91.6601 289.567 92.2435C289.567 92.8269 289.447 93.3374 289.206 93.7749C288.965 94.2052 288.641 94.5406 288.232 94.7813C287.824 95.0146 287.357 95.1313 286.832 95.1313ZM286.843 94.3437C287.157 94.3437 287.448 94.2672 287.718 94.114C287.988 93.9536 288.207 93.7166 288.375 93.403C288.542 93.0894 288.626 92.7029 288.626 92.2435C288.626 91.7768 288.542 91.3903 288.375 91.084C288.214 90.7704 287.999 90.537 287.729 90.3839C287.467 90.2235 287.175 90.1432 286.854 90.1432C286.548 90.1432 286.256 90.2235 285.979 90.3839C285.709 90.537 285.49 90.7704 285.323 91.084C285.162 91.3903 285.082 91.7768 285.082 92.2435C285.082 92.7029 285.162 93.0894 285.323 93.403C285.49 93.7166 285.705 93.9536 285.968 94.114C286.238 94.2672 286.53 94.3437 286.843 94.3437ZM295.887 95.0001V89.4869H296.718L296.784 90.537C296.908 90.2891 297.065 90.0776 297.254 89.9026C297.451 89.7276 297.685 89.5927 297.954 89.4979C298.232 89.4031 298.545 89.3557 298.895 89.3557V90.3183H298.556C298.323 90.3183 298.1 90.3511 297.889 90.4167C297.677 90.4751 297.488 90.5735 297.32 90.7121C297.16 90.8506 297.032 91.0402 296.937 91.2809C296.85 91.5142 296.806 91.8059 296.806 92.156V95.0001H295.887ZM307.133 95.0001C306.805 95.0001 306.521 94.949 306.28 94.8469C306.039 94.7448 305.853 94.5734 305.722 94.3328C305.598 94.0849 305.536 93.753 305.536 93.3374V90.2636H304.574V89.4869H305.536L305.657 88.1524H306.455V89.4869H308.052V90.2636H306.455V93.3374C306.455 93.6801 306.524 93.9135 306.663 94.0374C306.802 94.1541 307.046 94.2125 307.396 94.2125H307.987V95.0001H307.133Z" fill="#3F3F3F"/>
<path d="M306.123 16.734C309.204 17.0249 312.31 17.9389 315.166 19.4322C312.893 19.3149 310.579 19.7659 308.437 20.7297C306.568 21.5702 304.784 22.8461 303.374 24.6405C302.522 25.7242 301.92 26.9296 301.378 28.2873C301.371 28.3032 301.362 28.3262 301.349 28.3627C301.255 28.6606 300.68 30.028 301.307 29.9934C301.459 29.9852 301.637 29.8295 301.769 29.7523C302.357 29.4063 302.943 29.0579 303.543 28.7438C304.794 28.0883 306.056 27.5186 307.347 27.0082C309.346 26.2175 311.465 25.7312 313.549 25.5349C308.632 27.971 303.633 33.7048 303.32 40.8341C303.285 41.6413 303.315 42.453 303.416 43.2514C303.461 43.6095 303.753 43.8399 304.024 43.7323C304.325 43.6129 304.541 43.0616 304.728 42.7644C305.604 41.3733 306.531 40.0348 307.519 38.7719C309.412 36.351 311.531 34.2244 313.85 32.5069C312.05 35.5044 310.751 39.1021 310.298 42.8464C309.882 46.2946 310.223 50.0123 311.797 52.9424C311.976 53.2753 312.181 53.7609 312.56 53.6392C312.904 53.529 312.92 53.0853 312.97 52.717C313.085 51.8659 313.215 51.0181 313.362 50.1752C313.654 48.4996 314.013 46.8423 314.451 45.2191C315.298 42.0772 316.461 39.1428 317.879 36.4218C317.892 36.734 317.985 37.0157 318.167 37.2009C318.567 37.6076 319.226 37.4018 319.638 36.7417C320.05 36.0816 320.059 35.216 319.659 34.8093C319.438 34.5854 319.14 34.5477 318.847 34.6686C319.047 34.3252 319.25 33.986 319.458 33.6501C319.444 34.2055 319.637 34.6937 319.983 34.869C320.459 35.1096 321.042 34.669 321.286 33.8842C321.53 33.0993 321.341 32.2678 320.866 32.0267C320.766 31.9761 320.662 31.9575 320.557 31.9638C321.234 30.9753 321.947 30.0222 322.692 29.1043C322.744 29.2658 322.797 29.4397 322.857 29.623C322.907 29.7787 322.959 29.9431 323.014 30.115C323.065 30.2927 323.114 30.4852 323.167 30.6816C323.22 30.8781 323.275 31.0829 323.333 31.2952C323.361 31.4011 323.39 31.509 323.42 31.6188C323.446 31.7327 323.472 31.8485 323.5 31.966C323.568 32.2757 323.646 32.5935 323.721 32.9257C323.605 32.9044 323.489 32.9138 323.376 32.9619C322.891 33.1697 322.667 33.9864 322.878 34.787C323.088 35.5874 323.651 36.0686 324.136 35.8609C324.187 35.8393 324.233 35.8101 324.278 35.7762C324.349 36.1844 324.422 36.5988 324.49 37.0321C324.587 37.6891 324.698 38.3577 324.792 39.0596C324.984 40.4598 325.169 41.9447 325.331 43.4937C325.411 44.2689 325.496 45.0533 325.565 45.8567C325.64 46.6566 325.712 47.4671 325.775 48.2887C325.844 49.107 325.904 49.9359 325.961 50.7684C326.023 51.5982 326.072 52.4377 326.125 53.2741C326.227 54.9486 326.31 56.6281 326.386 58.2815C326.456 59.9368 326.518 61.5663 326.565 63.1452C326.661 66.3031 326.713 69.254 326.738 71.7808C326.754 73.3459 326.759 74.7486 326.759 75.9373C326.188 76.0185 325.618 76.1172 325.052 76.2376C323.485 76.5708 321.938 77.0638 320.439 77.7423C319.756 78.0516 319.082 78.4 318.427 78.798C318.163 78.959 316.992 79.5096 316.992 79.925C316.992 79.9709 316.98 80.0614 316.979 80.1402H343.7C343.702 80.0113 343.697 79.8365 343.697 79.7997C341.931 78.3318 339.852 77.3864 337.756 76.7604C337.752 76.7325 337.749 76.7059 337.745 76.6777C337.537 75.1597 337.232 73.005 336.838 70.4308C336.444 67.8564 335.963 64.8613 335.405 61.6618C335.127 60.0623 334.826 58.4113 334.513 56.7364C334.194 55.0612 333.864 53.3624 333.514 51.6662C333.337 50.8182 333.164 49.9709 332.978 49.1278C332.797 48.2849 332.613 47.4458 332.421 46.6143C332.235 45.7832 332.04 44.959 331.844 44.146C331.654 43.3331 331.448 42.5308 331.249 41.743C330.849 40.1675 330.433 38.649 330.018 37.2149C329.813 36.4977 329.59 35.8016 329.387 35.1301C329.178 34.4582 328.956 33.8111 328.754 33.1914C328.545 32.5717 328.323 31.9795 328.124 31.4186C327.921 30.8571 327.698 30.3273 327.506 29.8307C327.456 29.7066 327.408 29.5848 327.36 29.4646C327.308 29.3451 327.257 29.2276 327.206 29.1121C327.105 28.8816 327.007 28.6597 326.913 28.4464C326.818 28.2338 326.731 28.03 326.641 27.8358C326.545 27.6424 326.453 27.4582 326.366 27.2831C326.348 27.2461 326.33 27.2113 326.312 27.175C327.163 27.2983 328.011 27.4427 328.854 27.6429C329.579 27.8153 330.306 28.0034 331.027 28.2247C330.463 28.2817 330.014 28.7334 329.989 29.3152C329.96 29.967 330.471 30.5353 331.131 30.5834C331.792 30.6315 332.35 30.1411 332.38 29.4888C332.396 29.1174 332.237 28.7738 331.975 28.5373C332.31 28.657 332.642 28.7854 332.972 28.9251C333.203 29.0233 333.43 29.1297 333.659 29.2337C333.044 29.3715 332.603 29.9554 332.663 30.5776C332.725 31.2263 333.308 31.6686 333.964 31.5653C334.62 31.4621 335.102 30.8537 335.04 30.2047C335.027 30.0797 334.996 29.9622 334.948 29.8549C337.314 31.0672 339.537 32.5937 341.648 34.4809C343.138 35.8127 344.501 37.3469 345.843 38.9099C346.471 39.6414 346.324 37.7137 346.308 37.4391C346.233 36.8413 346.162 36.2567 346.045 35.6701C345.778 34.3956 345.35 33.1859 344.795 32.0726C342.369 27.2139 337.96 24.0759 333.568 23.0821C336.905 22.4164 340.253 22.4955 343.584 23.1353C345.198 23.4455 346.779 23.948 348.354 24.4802C348.594 24.5612 349.193 24.6028 348.938 24.0404C348.605 23.3106 348.279 22.5698 347.839 21.9324C347.139 20.9197 346.377 20.0415 345.48 19.3123C341.627 16.1803 336.461 15.8833 332.145 17.4966C333.655 16.0115 335.265 14.6647 336.971 13.5698C338.588 12.5318 340.244 11.6321 341.955 10.8728C342.196 10.7657 342.602 10.6946 342.8 10.4661C343.308 9.88024 341.782 9.28614 341.528 9.16573C340.816 8.82818 340.029 8.56075 339.266 8.50078C334.716 8.14268 330.286 10.881 327.156 15.0182C329.061 10.3774 331.613 6.34927 334.676 2.8732C335.14 2.34608 335.609 1.8342 336.087 1.32739C336.255 1.14943 336.595 0.9011 336.701 0.639476C337.005 -0.110821 335.435 0.00693444 335.174 0.00645084C332.626 -0.000561272 330.201 1.40525 328.232 3.40757C324.715 6.98641 322.322 12.4631 321.772 18.1482C318.025 13.189 311.835 10.699 306.553 12.0608C305.413 12.3545 304.336 12.9005 303.324 13.6189C302.973 13.8682 302.625 14.1675 302.311 14.4889C302.022 14.7846 300.837 15.8272 301.019 16.3771C301.187 16.8856 302.504 16.5771 302.845 16.5693C303.937 16.5442 305.034 16.631 306.123 16.734ZM321.35 31.9198C321.35 31.0754 321.765 30.3912 322.277 30.3912C322.789 30.3912 323.204 31.0754 323.204 31.9198C323.204 32.7642 322.789 33.4484 322.277 33.4484C321.765 33.4484 321.35 32.7639 321.35 31.9198ZM322.006 36.8621C321.495 36.8621 321.08 36.1776 321.08 35.3335C321.08 34.4891 321.495 33.8049 322.006 33.8049C322.518 33.8049 322.933 34.4891 322.933 35.3335C322.933 36.1776 322.518 36.8621 322.006 36.8621ZM320.398 39.0456C319.89 38.965 319.544 38.2206 319.626 37.3827C319.708 36.5449 320.185 35.931 320.693 36.0115C321.201 36.092 321.547 36.8365 321.465 37.6743C321.383 38.5124 320.906 39.1263 320.398 39.0456ZM321.859 40.8644C321.351 40.7836 321.005 40.0389 321.087 39.2013C321.168 38.3637 321.647 37.75 322.154 37.83C322.662 37.9106 323.008 38.6555 322.926 39.4941C322.844 40.3312 322.367 40.9451 321.859 40.8644ZM324.367 36.9596C324.685 37.6992 324.58 38.554 324.132 38.8688C323.683 39.1834 323.061 38.8386 322.743 38.0987C322.424 37.3581 322.53 36.5033 322.978 36.1892C323.427 35.8746 324.049 36.219 324.367 36.9596ZM328.289 30.0925C327.675 29.7794 327.331 29.034 327.521 28.427C327.711 27.8201 328.363 27.5827 328.977 27.8958C329.591 28.2089 329.935 28.9546 329.745 29.5611C329.556 30.1682 328.904 30.4062 328.289 30.0925ZM330.339 32.6882C329.987 33.1631 329.313 33.0775 328.832 32.4975C328.352 31.9174 328.247 31.0621 328.599 30.5873C328.951 30.1124 329.625 30.198 330.106 30.778C330.586 31.3581 330.691 32.2133 330.339 32.6882ZM332.165 30.7193C332.779 31.0322 333.123 31.7786 332.933 32.3843C332.743 32.9917 332.091 33.2296 331.477 32.9167C330.863 32.6036 330.519 31.8572 330.709 31.2507C330.899 30.6443 331.551 30.4062 332.165 30.7193ZM331.059 33.917C331.386 34.6504 331.292 35.5076 330.847 35.8311C330.402 36.1549 329.776 35.8224 329.449 35.089C329.121 34.3557 329.216 33.4985 329.661 33.175C330.105 32.8512 330.731 33.1834 331.059 33.917ZM332.907 33.6861C333.487 34.0938 333.756 34.8883 333.509 35.4607C333.262 36.033 332.592 36.1665 332.012 35.7586C331.433 35.3509 331.164 34.5564 331.411 33.984C331.658 33.4117 332.328 33.2785 332.907 33.6861ZM334.571 32.2707C335.15 32.6783 335.419 33.4726 335.172 34.0447C334.925 34.6168 334.255 34.7503 333.676 34.3426C333.097 33.9349 332.828 33.1406 333.075 32.5685C333.323 31.9965 333.992 31.863 334.571 32.2707Z" fill="#0A0A0A"/>
</svg>
